<svg width="20" height="20" viewBox="0 0 20 20" fill="none" xmlns="http://www.w3.org/2000/svg">
<g clip-path="url(#clip0)">
<path d="M15.2734 11.1044H18.8281C19.1984 11.1044 19.5 11.4063 19.5 11.7763V14.1201C19.5 14.4901 19.1984 14.7919 18.8281 14.7919H15.2734C14.2575 14.7919 13.4297 13.9646 13.4297 12.9482C13.4297 11.9318 14.2575 11.1044 15.2734 11.1044ZM14.1875 12.9482C14.1875 13.5479 14.6737 14.0341 15.2734 14.0341C15.8732 14.0341 16.3594 13.5479 16.3594 12.9482C16.3594 12.3483 15.8731 11.8623 15.2734 11.8623C14.6737 11.8623 14.1875 12.3483 14.1875 12.9482Z" fill="white" stroke="white"/>
<path d="M1.17188 4.07319H2.6803L0.511638 4.85678C0.503886 4.81971 0.5 4.78245 0.5 4.74507C0.5 4.37398 0.800791 4.07319 1.17188 4.07319Z" fill="white" stroke="white"/>
<path d="M16.7192 3.13659L16.1523 1.57847C16.0997 1.43257 15.9898 1.31355 15.849 1.24773C15.7083 1.18136 15.5481 1.17449 15.4016 1.22827L13.8433 1.79554C13.8711 2.41831 14.1598 2.8932 14.5399 3.18062C15.0854 3.59136 15.9625 3.71781 16.7192 3.13659Z" fill="white"/>
<path d="M12.7152 2.20637L2.48328 5.91695H17.731L17.13 4.26543C16.019 4.93156 14.7368 4.79601 13.8338 4.11566C13.2703 3.68941 12.845 3.02215 12.7152 2.20637Z" fill="white"/>
<path d="M11.7578 12.9482C11.7578 11.0096 13.3348 9.43258 15.2734 9.43258H18.8281V7.67477C18.8281 7.3511 18.5658 7.08883 18.2422 7.08883H1.17188C0.743164 7.08883 0.346172 6.96465 0 6.76274V17.0498C0 18.0206 0.786992 18.8076 1.75781 18.8076H18.2422C18.5658 18.8076 18.8281 18.5452 18.8281 18.2216V16.4638H15.2734C13.3348 16.4638 11.7578 14.8868 11.7578 12.9482ZM7.09664 15.6965C7.08797 15.6997 7.07898 15.6982 7.07031 15.7012V16.4638C7.07031 16.7877 6.80824 17.0497 6.48438 17.0497C6.16051 17.0497 5.89844 16.7877 5.89844 16.4638V15.68C5.52734 15.5464 5.17102 15.3044 4.86391 14.9389C4.65562 14.6911 4.68766 14.3214 4.93602 14.1132C5.1832 13.9049 5.55285 13.9369 5.76113 14.1847C6.06898 14.5509 6.40656 14.6985 6.69613 14.5956C6.9193 14.5137 7.07035 14.2911 7.07035 14.0416C7.07035 13.6932 6.76707 13.5341 6.48441 13.5341C5.53113 13.5341 4.7266 12.693 4.7266 11.6979C4.7266 11.0067 5.16035 10.3761 5.83211 10.0917C5.85355 10.0827 5.8768 10.0834 5.89848 10.0751V9.43254C5.89848 9.10868 6.16055 8.8466 6.48441 8.8466C6.80828 8.8466 7.07035 9.10868 7.07035 9.43254V10.0172C7.42648 10.1105 7.77023 10.2922 8.06371 10.577C8.29602 10.8018 8.30176 11.1732 8.07746 11.4055C7.85203 11.6378 7.48121 11.6447 7.24891 11.4181C6.8232 11.0061 6.43293 11.1085 6.28875 11.1709C6.05188 11.2716 5.89852 11.4782 5.89852 11.6979C5.89852 12.0395 6.18348 12.3622 6.48445 12.3622C7.48695 12.3622 8.24227 13.0843 8.24227 14.0416C8.24219 14.7821 7.78215 15.447 7.09664 15.6965Z" fill="white"/>
<rect x="4.375" y="8.75" width="4.375" height="8.75" fill="white"/>
</g>
<defs>
<clipPath id="clip0">
<rect width="20" height="20" fill="white"/>
</clipPath>
</defs>
</svg>
