<svg width="257" height="256" viewBox="0 0 257 256" fill="none" xmlns="http://www.w3.org/2000/svg">
<path d="M248.706 144.747C221.812 103.566 224.67 61.3546 211.707 41.5075C198.743 21.6604 160.109 -12.5583 68.8233 47.0684C-22.4621 106.695 0.755699 171.513 15.0206 193.337C81.7797 295.538 296.343 217.678 248.706 144.747Z" fill="#EFEFEF"/>
<path d="M208.5 133.333V179.555C208.5 187.378 202.1 193.778 194.278 193.778H62.7222C54.9 193.778 48.5 187.378 48.5 179.555V133.333H75.2378C78.3667 133.333 81.14 135.395 81.9933 138.382L89.6733 163.84C90.5267 166.827 93.3 168.889 96.4289 168.889H160.571C163.7 168.889 166.473 166.827 167.327 163.84L175.007 138.382C175.86 135.395 178.633 133.333 181.762 133.333H208.5Z" fill="#F3F3F1"/>
<path d="M208.5 133.333H181.762C178.633 133.333 175.86 135.396 175.007 138.382L167.327 163.84C166.473 166.827 163.7 168.889 160.571 168.889H96.4289C93.3 168.889 90.5267 166.827 89.6733 163.84L81.9933 138.382C81.14 135.396 78.3667 133.333 75.2378 133.333H48.5L80.5 62.2222H176.5L208.5 133.333Z" fill="#2FDF84"/>
<path d="M183.326 163.84L191.006 138.382C191.86 135.395 194.633 133.333 197.762 133.333H181.762C178.633 133.333 175.86 135.395 175.006 138.382L167.326 163.84C166.473 166.827 163.7 168.889 160.571 168.889H176.571C179.7 168.889 182.473 166.827 183.326 163.84Z" fill="#D5DBE1"/>
<path d="M64.5 179.555V133.333H48.5V179.555C48.5 187.378 54.9 193.778 62.7222 193.778H78.7222C70.9 193.778 64.5 187.378 64.5 179.555Z" fill="#D5DBE1"/>
<path d="M80.5 62.2222L48.5 133.333H64.5L96.5 62.2222H80.5Z" fill="#00B871"/>
<path d="M105.673 163.84L97.9933 138.382C97.14 135.395 94.3667 133.333 91.2378 133.333H75.2378C78.3667 133.333 81.14 135.395 81.9933 138.382L89.6733 163.84C90.5267 166.827 93.3 168.889 96.4289 168.889H112.429C109.3 168.889 106.527 166.827 105.673 163.84Z" fill="#00B871"/>
<path d="M197.791 46.2222C191.91 46.2222 187.124 41.4365 187.124 35.5556C187.124 29.6747 191.91 24.8889 197.791 24.8889C203.672 24.8889 208.457 29.6747 208.457 35.5556C208.457 41.4365 203.672 46.2222 197.791 46.2222ZM197.791 32C195.828 32 194.235 33.6 194.235 35.5556C194.235 37.5111 195.828 39.1111 197.791 39.1111C199.753 39.1111 201.346 37.5111 201.346 35.5556C201.346 33.6 199.753 32 197.791 32Z" fill="#A4AFC1"/>
<path d="M50.584 34.2725L55.6123 29.2441L65.6689 39.3008L60.6406 44.3291L50.584 34.2725Z" fill="#A4AFC1"/>
<path d="M49.3169 68.2175L59.3735 58.1609L64.4018 63.1892L54.3452 73.2458L49.3169 68.2175Z" fill="#A4AFC1"/>
<path d="M78.2354 39.3035L88.292 29.2468L93.3203 34.2752L83.2637 44.3318L78.2354 39.3035Z" fill="#A4AFC1"/>
<path d="M194.278 199.111H62.7225C51.935 199.111 43.167 190.343 43.167 179.556V133.333C43.167 132.58 43.3234 131.833 43.6363 131.143L75.6363 60.032C76.4968 58.1191 78.4025 56.8889 80.5003 56.8889H176.5C178.598 56.8889 180.504 58.1191 181.364 60.032L213.364 131.143C213.677 131.833 213.834 132.58 213.834 133.333V179.556C213.834 190.343 205.066 199.111 194.278 199.111ZM53.8337 134.478V179.556C53.8337 184.455 57.823 188.444 62.7225 188.444H194.278C199.178 188.444 203.167 184.455 203.167 179.556V134.478L173.051 67.5556H83.9492L53.8337 134.478Z" fill="black"/>
<path d="M160.543 174.222H96.4573C90.9249 174.222 86.132 170.66 84.5391 165.355L76.9089 139.94C76.6813 139.193 75.9844 138.667 75.2093 138.667H48.5V128H75.2093C80.7418 128 85.5347 131.563 87.1276 136.868L94.7578 162.283C94.9853 163.036 95.6822 163.556 96.4573 163.556H160.543C161.318 163.556 162.022 163.036 162.242 162.283L169.872 136.868C171.465 131.563 176.251 128 181.791 128H208.5V138.667H181.791C181.016 138.667 180.312 139.186 180.091 139.94L172.461 165.355C170.868 170.66 166.075 174.222 160.543 174.222Z" fill="black"/>
<path d="M14.7222 188.444H242.278V199.111H14.7222V188.444Z" fill="black"/>
</svg>
