<svg width="48" height="48" viewBox="0 0 48 48" fill="none" xmlns="http://www.w3.org/2000/svg">
<path d="M24 48C37.2547 48 48 37.2547 48 24C48 10.7453 37.2547 0 24 0C10.7442 0 0 10.7453 0 24C0 37.2547 10.7442 48 24 48Z" fill="#1B1B1B"/>
<path d="M28.9617 13L22.2103 19.1685C21.5111 19.8086 20.6011 20.1626 19.6572 20.1673L17.6449 20.172L17.6391 13H14V33.4949H15.9844C16.5299 33.4973 17.0662 33.3538 17.5384 33.079C18.0106 32.8042 18.4016 32.408 18.6714 31.9311C18.6761 31.9252 18.6784 31.9182 18.6831 31.9135C19.0432 31.2629 19.2226 29.9769 19.1888 29.0989C19.1107 27.0919 18.7891 26.5703 18.7891 26.5703C18.7216 27.9454 17.293 28.0204 17.293 28.0204C18.3091 27.0439 17.7556 26.3053 17.7556 26.3053C15.9565 27.5948 15.5067 26.2186 15.4717 26.0943C15.5288 26.1412 16.0403 26.5726 17.0133 25.2315C18.0422 23.8131 19.4137 21.4509 20.2865 20.8437C21.1616 20.2341 21.9912 20.2845 21.9912 20.2845C21.9912 20.2845 22.469 19.6339 23.7321 19.0923C24.9952 18.5554 25.805 19.3432 25.805 19.3432C24.5128 20.3924 22.7591 22.1133 22.6612 24.5786C22.5832 26.575 26.8596 29.9992 26.1091 35.0564C26.5578 33.9076 26.7384 32.7564 26.5846 31.3332C26.4599 30.1844 25.7246 27.7848 25.7246 27.7848L29.8321 33.4926H34.373L25.4963 21.2259L34.373 13H28.9617Z" fill="url(#paint0_linear)"/>
<path d="M20.6888 21.8249C20.4022 22.3032 20.4022 22.4498 20.4022 22.4498C20.4022 22.4498 21.4053 22.2786 21.6767 21.0806C21.6791 21.0806 21.036 21.2459 20.6888 21.8249Z" fill="url(#paint1_linear)"/>
<defs>
<linearGradient id="paint0_linear" x1="35.346" y1="80.2734" x2="57.7129" y2="69.2755" gradientUnits="userSpaceOnUse">
<stop stop-color="#FF4C3B"/>
<stop offset="1" stop-color="#E40C5B"/>
</linearGradient>
<linearGradient id="paint1_linear" x1="21.7373" y1="25.2561" x2="23.1318" y2="24.5655" gradientUnits="userSpaceOnUse">
<stop stop-color="#FF4C3B"/>
<stop offset="1" stop-color="#E40C5B"/>
</linearGradient>
</defs>
</svg>
