<svg width="257" height="256" viewBox="0 0 257 256" fill="none" xmlns="http://www.w3.org/2000/svg">
<path d="M195.465 27.8329C146.292 28.7502 112.037 3.90403 88.3432 4.35203C64.649 4.80003 15.1272 19.3494 17.1681 128.37C19.209 237.39 86.4588 252.132 112.528 251.648C234.576 249.365 282.562 26.2045 195.465 27.8329Z" fill="#EFEFEF"/>
<path d="M43.4941 24.8147L53.5508 14.7581L58.5791 19.7864L48.5225 29.843L43.4941 24.8147Z" fill="#A4AFC1"/>
<path d="M14.5859 53.7117L24.6426 43.655L29.6709 48.6834L19.6143 58.74L14.5859 53.7117Z" fill="#A4AFC1"/>
<path d="M14.5864 18.513L19.6147 13.4847L29.6714 23.5413L24.6431 28.5697L14.5864 18.513Z" fill="#A4AFC1"/>
<path d="M194.278 152.156V172.864C194.278 180.459 188.027 186.667 180.397 186.667H62.3809C54.7436 186.667 48.5 180.451 48.5 172.864V83.1359C48.5 75.5413 54.7507 69.3333 62.3809 69.3333H180.39C188.027 69.3333 194.271 75.5484 194.271 83.1359V110.741V152.156H194.278Z" fill="#F3F3F1"/>
<path d="M201.98 151.111H160.501C149.699 151.111 140.945 142.357 140.945 131.556C140.945 120.754 149.699 112 160.501 112H201.98C205.578 112 208.501 114.916 208.501 118.521V144.597C208.501 148.196 205.585 151.111 201.98 151.111Z" fill="#2FDF84"/>
<path d="M180.398 192H62.3817C51.7861 192 43.1675 183.41 43.1675 172.864V83.136C43.1675 72.5902 51.7861 64 62.3817 64H180.398C190.993 64 199.612 72.5902 199.612 83.136V110.741H188.945V83.136C188.945 78.464 185.112 74.6667 180.398 74.6667H62.3817C57.667 74.6667 53.8341 78.4711 53.8341 83.136V172.857C53.8341 177.529 57.667 181.326 62.3817 181.326H180.398C185.112 181.326 188.945 177.522 188.945 172.857V152.149H199.612V172.857C199.612 183.41 190.993 192 180.398 192Z" fill="black"/>
<path d="M201.978 156.445H160.499C146.774 156.445 135.61 145.28 135.61 131.556C135.61 117.831 146.774 106.667 160.499 106.667H201.978C208.513 106.667 213.832 111.986 213.832 118.521V144.597C213.832 151.125 208.513 156.445 201.978 156.445ZM160.499 117.333C152.655 117.333 146.277 123.712 146.277 131.556C146.277 139.399 152.655 145.778 160.499 145.778H201.978C202.632 145.778 203.165 145.245 203.165 144.59V118.514C203.165 117.86 202.632 117.326 201.978 117.326H160.499V117.333Z" fill="black"/>
<path d="M160.501 138.667C164.429 138.667 167.612 135.483 167.612 131.556C167.612 127.628 164.429 124.444 160.501 124.444C156.574 124.444 153.39 127.628 153.39 131.556C153.39 135.483 156.574 138.667 160.501 138.667Z" fill="black"/>
</svg>
